<?xml version="1.0" standalone="no"?>
<!DOCTYPE svg PUBLIC "-//W3C//DTD SVG 20010904//EN"
 "http://www.w3.org/TR/2001/REC-SVG-20010904/DTD/svg10.dtd">
<svg version="1.0" xmlns="http://www.w3.org/2000/svg"
 width="512.000000pt" height="512.000000pt" viewBox="0 0 512.000000 512.000000"
 preserveAspectRatio="xMidYMid meet">

<g transform="translate(0.000000,512.000000) scale(0.100000,-0.100000)"
fill="#000000" stroke="none">
<path d="M62 5105 c-67 -29 -62 169 -62 -2545 0 -2722 -5 -2516 64 -2545 53
-22 4939 -22 4992 0 69 29 64 -177 64 2545 0 2722 5 2516 -64 2545 -53 22
-4944 22 -4994 0z m4213 -1641 c25 -10 48 -62 41 -98 -4 -22 -246 -333 -807
-1036 -1019 -1278 -913 -1150 -949 -1150 -36 0 70 -128 -949 1150 -561 703
-803 1014 -807 1036 -6 33 15 88 38 97 19 8 3413 8 3433 1z"/>
</g>
</svg>
