<?xml version="1.0" standalone="no"?>
<!DOCTYPE svg PUBLIC "-//W3C//DTD SVG 20010904//EN"
 "http://www.w3.org/TR/2001/REC-SVG-20010904/DTD/svg10.dtd">
<svg version="1.0" xmlns="http://www.w3.org/2000/svg"
 width="512.000000pt" height="512.000000pt" viewBox="0 0 512.000000 512.000000"
 preserveAspectRatio="xMidYMid meet">

<g transform="translate(0.000000,512.000000) scale(0.100000,-0.100000)"
fill="#000000" stroke="none">
<path d="M2330 5110 c-234 -23 -517 -91 -723 -175 -398 -163 -751 -422 -1022
-750 -76 -93 -218 -294 -231 -330 -6 -13 225 -15 2206 -15 2012 0 2212 1 2206
16 -13 33 -139 214 -219 314 -113 140 -308 329 -454 437 -344 257 -736 420
-1158 484 -151 23 -462 32 -605 19z"/>
<path d="M1521 3514 c0 -11 3 -14 6 -6 3 7 2 16 -1 19 -3 4 -6 -2 -5 -13z"/>
<path d="M1503 3438 c-26 -37 -25 -39 5 -31 16 4 22 13 22 34 0 16 -1 29 -2
29 -2 0 -13 -15 -25 -32z"/>
<path d="M1540 3430 c0 -11 7 -20 15 -20 8 0 15 -4 15 -10 0 -5 -18 -10 -39
-10 -34 0 -39 -3 -36 -20 2 -11 -1 -22 -6 -25 -5 -4 -7 -11 -4 -16 3 -5 -2 -6
-12 -3 -15 5 -15 4 -3 -5 8 -5 20 -36 26 -68 9 -55 11 -57 23 -35 11 20 10 26
-3 41 -31 35 -13 106 26 100 28 -3 34 2 36 35 2 26 -2 38 -18 46 -17 9 -20 8
-20 -10z"/>
<path d="M1416 3382 c-3 -5 1 -9 9 -9 8 0 12 4 9 9 -3 4 -7 8 -9 8 -2 0 -6 -4
-9 -8z"/>
<path d="M1646 3379 c2 -4 13 -7 24 -6 23 2 17 10 -10 12 -10 1 -17 -2 -14 -6z"/>
<path d="M1361 3373 c-1 -7 -12 -10 -28 -8 -16 2 -22 2 -15 -2 10 -4 9 -9 -4
-24 -21 -24 -35 -24 -28 -1 2 9 -1 6 -8 -8 -7 -14 -21 -34 -30 -44 -12 -14
-15 -22 -7 -27 8 -4 7 -8 -2 -12 -11 -3 -9 -9 6 -21 19 -15 19 -16 1 -9 -12 4
-17 3 -13 -4 4 -6 16 -13 27 -16 11 -3 18 -1 15 4 -3 5 -1 27 5 49 8 28 21 47
43 61 28 18 29 20 7 14 -18 -4 -21 -3 -11 3 7 6 39 8 70 5 44 -4 61 -2 73 10
9 9 19 13 24 9 5 -4 2 1 -5 11 -7 9 -19 17 -25 17 -6 0 -5 -4 3 -9 11 -7 10
-11 -7 -20 -24 -13 -92 -15 -92 -3 0 4 17 7 38 5 32 -3 34 -2 14 7 -13 5 -28
8 -32 5 -5 -3 -11 1 -13 7 -4 9 -6 10 -6 1z m-68 -77 c-10 -13 -20 -22 -22
-20 -4 4 29 44 36 44 2 0 -4 -11 -14 -24z"/>
<path d="M1581 3357 c-6 -6 -23 -10 -38 -11 -35 -1 -41 -27 -17 -64 10 -15 19
-36 20 -47 2 -22 -9 -47 -19 -46 -21 3 -27 0 -21 -11 4 -8 3 -10 -2 -5 -10 9
-11 14 -13 52 -1 24 -4 25 -38 20 -21 -4 -60 -13 -86 -22 -27 -8 -57 -13 -68
-10 -19 5 -19 4 -6 -17 10 -15 12 -28 6 -38 -6 -11 -4 -21 6 -32 20 -20 19
-33 -5 -39 -27 -7 -31 3 -20 44 12 43 10 52 -15 57 -52 11 -122 4 -164 -16
-24 -12 -48 -19 -52 -16 -13 8 -11 -10 3 -24 8 -8 8 -15 -2 -27 -7 -8 -15 -13
-17 -11 -3 3 -11 0 -18 -7 -17 -16 -7 -45 17 -49 12 -2 26 -12 32 -23 14 -26
28 -36 43 -31 6 3 19 -2 30 -9 24 -19 50 -19 61 1 7 13 13 14 31 4 28 -15 71
10 71 42 0 20 1 20 25 -6 29 -31 57 -33 83 -6 17 18 20 19 32 5 25 -30 76 -12
93 35 5 13 6 13 6 -1 2 -40 66 -64 91 -34 12 14 15 13 32 -5 27 -28 62 -25 87
8 20 26 20 26 21 5 0 -33 42 -58 71 -43 18 10 24 9 31 -4 11 -20 37 -20 61 -1
11 7 24 12 30 9 15 -5 29 5 43 31 6 11 20 21 32 23 11 2 22 12 25 23 3 10 1
17 -4 13 -5 -3 -9 4 -9 16 0 12 5 18 10 15 11 -7 14 8 4 18 -4 4 -15 -2 -24
-13 -16 -18 -18 -18 -24 -4 -3 8 -1 23 4 32 9 14 10 12 5 -8 l-6 -25 15 25 c9
14 15 35 16 48 0 12 4 22 8 22 5 0 7 -13 4 -29 -2 -16 1 -32 7 -35 7 -5 10 1
8 16 -1 16 3 22 13 20 12 -3 12 -1 3 9 -6 6 -9 19 -6 28 4 12 3 13 -5 3 -8
-11 -14 -9 -31 9 -11 12 -21 30 -21 38 1 13 2 13 11 -1 5 -10 15 -18 20 -18
23 0 -27 35 -51 36 -15 1 -32 4 -38 8 -5 3 -21 1 -34 -4 -21 -10 -21 -10 5 -5
18 4 26 2 22 -4 -4 -7 1 -8 11 -4 11 4 15 2 11 -4 -4 -6 2 -18 13 -28 11 -10
20 -25 21 -34 0 -12 3 -11 9 4 7 16 9 11 9 -20 1 -26 -2 -35 -8 -26 -6 9 -10
10 -12 2 -3 -8 -18 -6 -49 8 -66 29 -115 35 -151 21 -22 -10 -27 -15 -17 -21
9 -6 9 -9 1 -9 -6 0 -15 5 -18 10 -4 6 -11 7 -17 4 -6 -4 -4 3 5 17 20 27 23
51 5 27 -12 -15 -19 -14 -78 2 -36 11 -77 22 -92 25 -23 4 -28 11 -28 35 0 17
7 34 18 40 13 9 13 10 1 7 -9 -3 -16 1 -16 8 0 10 7 10 30 3 16 -6 52 -8 80
-5 29 4 47 3 40 -1 -8 -5 -2 -13 18 -24 18 -11 27 -13 24 -5 -4 6 1 3 9 -7 9
-11 16 -35 16 -54 0 -18 4 -31 10 -27 5 3 7 12 4 19 -3 8 -1 17 5 21 7 3 8 0
5 -9 -3 -9 -2 -16 3 -16 5 0 9 9 10 20 1 11 -3 20 -8 20 -5 0 -19 19 -30 43
-11 23 -17 34 -15 25 3 -10 1 -18 -4 -18 -5 0 -10 8 -12 17 -2 11 -15 17 -43
19 -22 2 -52 6 -67 8 -16 3 -28 1 -28 -4 0 -5 17 -11 38 -13 32 -4 31 -4 -8
-3 -26 1 -44 6 -43 12 2 13 -23 14 -36 1z m182 -26 c3 -13 1 -18 -9 -14 -7 2
-10 11 -7 19 7 19 10 18 16 -5z m-217 -26 c-1 -38 -17 -32 -21 9 -2 16 2 26 9
26 8 0 12 -14 12 -35z m17 -66 c-4 -4 -6 18 -3 49 l5 57 3 -49 c2 -27 0 -52
-5 -57z m452 22 c-3 -5 -1 -12 5 -16 5 -3 10 -11 10 -17 0 -6 -9 -3 -20 7 -16
14 -17 20 -8 27 17 10 20 10 13 -1z m-442 -82 c-6 -6 -7 3 -4 23 4 28 6 29 9
9 2 -13 0 -27 -5 -32z m-20 10 c-12 -12 -5 -52 7 -44 5 3 6 -4 3 -15 -3 -13
-14 -20 -28 -20 -14 0 -25 7 -28 20 -3 11 -1 18 4 14 8 -5 14 17 10 39 -1 5 3
6 9 2 5 -3 13 1 16 10 4 9 9 13 12 10 3 -3 1 -10 -5 -16z m241 -71 c7 -32 -5
-42 -29 -24 -18 13 -18 15 -2 31 10 9 14 22 11 28 -5 8 -4 9 3 2 6 -5 13 -22
17 -37z m-300 -14 c20 -8 21 -33 2 -40 -8 -3 -24 0 -36 6 -21 11 -21 12 -3 25
22 17 18 16 37 9z m119 -9 c18 -13 18 -14 -3 -25 -12 -6 -28 -9 -36 -6 -17 7
-18 33 -1 39 18 8 20 8 40 -8z m-240 -14 c17 -6 16 -8 -8 -21 -23 -12 -28 -12
-35 0 -16 26 4 37 43 21z m371 1 c2 -4 1 -14 -4 -22 -7 -12 -12 -12 -35 0 -24
13 -25 15 -8 21 25 10 41 10 47 1z m-473 -18 c10 -13 10 -17 0 -24 -13 -7 -51
-2 -51 7 0 6 24 32 31 33 4 0 12 -7 20 -16z m565 2 c8 -8 14 -17 14 -19 0 -9
-38 -14 -51 -7 -10 7 -10 11 0 24 16 20 19 20 37 2z m-749 -14 c9 -22 -12 -35
-27 -17 -7 8 -19 15 -26 15 -8 0 -14 5 -14 10 0 15 61 8 67 -8z m963 8 c0 -5
-6 -10 -14 -10 -7 0 -19 -7 -26 -15 -7 -8 -16 -15 -21 -15 -9 0 -13 33 -4 41
9 10 65 9 65 -1z m-620 -10 c0 -5 -4 -10 -10 -10 -5 0 -10 5 -10 10 0 6 5 10
10 10 6 0 10 -4 10 -10z m230 0 c0 -5 -4 -10 -10 -10 -5 0 -10 5 -10 10 0 6 5
10 10 10 6 0 10 -4 10 -10z m-498 -10 c6 0 6 -6 -2 -15 -13 -15 -42 -20 -53
-8 -11 10 15 34 30 28 8 -3 19 -5 25 -5z m792 4 c25 -10 19 -34 -8 -34 -31 0
-55 26 -29 33 10 3 19 5 20 6 1 0 8 -2 17 -5z m-744 -34 c0 -5 -4 -10 -10 -10
-5 0 -10 5 -10 10 0 6 5 10 10 10 6 0 10 -4 10 -10z m670 0 c0 -5 -4 -10 -10
-10 -5 0 -10 5 -10 10 0 6 5 10 10 10 6 0 10 -4 10 -10z"/>
<path d="M1115 3320 c-3 -5 -4 -14 -1 -19 3 -5 -2 -11 -12 -13 -10 -3 -19 -12
-19 -21 0 -9 6 -13 15 -10 11 5 11 7 0 15 -8 6 -1 7 22 4 26 -5 30 -4 15 3
-14 7 0 8 43 4 45 -4 62 -3 62 6 0 7 -5 9 -10 6 -15 -10 -110 5 -110 17 0 5 5
6 12 2 7 -4 8 -3 4 4 -9 15 -13 15 -21 2z"/>
<path d="M1184 3320 c2 -16 20 -14 24 2 3 10 2 10 -6 -1 -7 -9 -11 -10 -15 -2
-4 7 -5 8 -3 1z"/>
<path d="M1824 3310 c3 -28 27 -36 82 -25 22 4 34 12 34 22 0 13 2 14 18 2 16
-13 16 -12 3 4 -14 17 -16 18 -27 2 -7 -9 -31 -19 -54 -22 -41 -6 -42 -5 -35
18 4 16 3 20 -3 10 -8 -11 -10 -11 -15 0 -3 8 -4 3 -3 -11z"/>
<path d="M1860 3310 c0 -5 5 -10 11 -10 5 0 7 5 4 10 -3 6 -8 10 -11 10 -2 0
-4 -4 -4 -10z"/>
<path d="M1039 3283 c-8 -10 -9 -14 -2 -10 6 4 14 3 18 -3 3 -5 -2 -10 -12
-10 -11 0 -28 -7 -39 -16 -18 -14 -18 -15 4 -4 12 6 22 7 22 2 0 -13 -21 -31
-34 -28 -6 2 -8 1 -3 -1 4 -3 7 -11 7 -19 0 -9 -5 -12 -12 -8 -6 4 -8 3 -4 -4
3 -5 3 -12 -1 -15 -5 -2 -2 -2 5 0 9 2 11 -3 7 -17 -4 -11 -2 -20 4 -20 6 0
11 10 12 23 1 15 5 10 13 -17 8 -25 15 -35 20 -28 4 7 4 18 -1 25 -10 16 -12
87 -1 81 4 -3 5 1 2 9 -3 8 0 18 7 23 8 5 10 3 4 -7 -5 -8 -4 -11 0 -6 13 12
16 47 4 47 -5 0 -7 5 -4 10 10 16 -1 11 -16 -7z"/>
<path d="M1815 3210 c-4 -6 -10 -8 -15 -5 -4 3 -11 -2 -14 -10 -5 -13 -2 -13
24 0 30 16 38 25 21 25 -6 0 -13 -5 -16 -10z"/>
<path d="M1000 3109 c0 -5 5 -7 10 -4 6 3 10 8 10 11 0 2 -4 4 -10 4 -5 0 -10
-5 -10 -11z"/>
<path d="M1520 3005 c-14 -16 -75 -21 -85 -6 -3 6 -18 3 -35 -7 -23 -14 -35
-15 -59 -6 -24 9 -32 9 -45 -4 -9 -9 -31 -16 -51 -15 -19 1 -38 -3 -41 -8 -3
-5 -16 -9 -30 -9 -24 0 -25 0 -6 -20 16 -17 24 -19 46 -10 37 14 59 13 51 -2
-4 -7 0 -5 8 5 18 21 57 23 57 2 0 -10 11 -15 35 -15 46 0 48 27 3 33 -20 3
-10 5 22 4 30 0 71 4 91 7 19 4 95 3 168 -3 107 -9 137 -14 148 -28 8 -10 12
-12 8 -5 -8 15 14 16 51 2 22 -9 30 -7 46 10 19 20 18 20 -7 20 -14 0 -25 4
-25 9 0 6 -18 9 -40 8 -25 -1 -46 5 -56 15 -13 13 -21 14 -45 4 -24 -9 -36 -8
-59 6 -17 10 -32 13 -35 7 -10 -14 -67 -11 -85 6 -15 14 -18 14 -30 0z m180
-35 c103 -12 190 -30 190 -41 0 -4 -24 -1 -52 7 -99 26 -290 37 -427 25 -69
-6 -150 -18 -178 -25 -29 -8 -53 -10 -53 -6 0 10 76 27 171 39 92 12 250 12
349 1z"/>
<path d="M1110 2976 c0 -2 8 -10 18 -17 15 -13 16 -12 3 4 -13 16 -21 21 -21
13z"/>
<path d="M1939 2963 c-13 -16 -12 -17 4 -4 9 7 17 15 17 17 0 8 -8 3 -21 -13z"/>
<path d="M765 2954 c-4 -14 -22 -26 -52 -35 -65 -20 -74 -38 -38 -80 l28 -34
-26 -3 c-22 -3 -27 -8 -27 -31 0 -45 20 -54 115 -52 55 2 85 -2 85 -8 0 -7
-32 -11 -84 -11 -47 0 -88 -4 -91 -10 -3 -5 -3 -10 2 -10 4 0 6 -48 3 -106
l-5 -105 -44 -22 c-69 -35 -75 -51 -43 -117 22 -44 33 -57 60 -64 30 -8 32
-12 32 -52 0 -42 -2 -44 -51 -69 l-50 -26 7 -47 c7 -47 40 -103 59 -98 15 4
18 55 4 72 -6 8 -9 14 -6 14 3 0 13 3 22 6 14 6 16 -8 14 -125 -1 -103 -4
-134 -15 -138 -8 -3 -14 -19 -14 -35 0 -21 -6 -31 -20 -35 -11 -3 -20 -12 -20
-20 0 -11 7 -13 33 -7 17 4 46 6 62 4 38 -4 91 -4 130 0 17 2 47 0 68 -4 31
-7 36 -6 31 7 -3 8 -14 17 -25 20 -13 3 -19 14 -19 32 0 14 -6 33 -14 41 -11
11 -15 51 -15 181 l-1 168 35 23 c29 18 35 28 35 56 0 52 -15 83 -44 90 -21 5
-26 12 -26 37 l0 31 57 -7 c31 -4 67 -11 80 -16 l23 -9 0 -263 c0 -262 0 -263
25 -314 15 -28 42 -64 62 -79 38 -29 158 -84 183 -83 10 0 8 3 -5 8 -16 7 -11
10 25 16 99 16 188 82 214 160 l13 37 12 -32 c27 -79 101 -139 196 -160 28 -6
58 -13 69 -16 12 -4 16 -2 12 5 -4 6 -2 9 7 5 20 -7 99 29 141 67 21 17 47 51
59 73 21 39 22 55 25 313 l3 271 63 11 c77 13 135 13 201 -3 l50 -11 3 -93 c3
-107 9 -104 -98 -53 -53 25 -55 28 -58 69 -2 23 -4 42 -6 42 -2 0 -17 -5 -33
-11 -26 -9 -32 -17 -37 -53 -8 -53 -3 -66 37 -93 39 -27 172 -93 187 -93 6 0
10 -41 10 -110 l0 -110 -78 0 c-78 0 -105 -10 -95 -36 3 -8 -2 -17 -11 -20
-10 -4 -16 -18 -16 -36 0 -21 -6 -31 -20 -35 -17 -5 -20 -14 -20 -70 l0 -65
28 8 c15 4 43 7 62 5 43 -3 94 -3 140 0 19 1 50 -1 68 -6 l32 -7 0 65 c0 61
-2 65 -25 71 -19 5 -25 13 -25 35 0 16 -6 31 -12 33 -15 5 -26 268 -12 268 21
-1 33 -16 24 -30 -14 -22 -12 -56 5 -70 12 -10 15 -10 15 1 0 7 9 23 21 35 14
15 21 37 22 70 2 49 2 49 -45 73 -46 22 -48 25 -48 66 0 40 2 44 29 50 34 7
51 25 76 83 18 41 18 43 -1 63 -10 12 -38 30 -61 41 l-42 18 -3 105 c-2 58 1
105 5 105 5 0 5 9 2 20 -4 13 -1 22 9 26 10 4 16 18 16 39 0 29 -4 34 -27 37
l-26 3 26 31 c25 30 30 55 12 71 -4 4 -5 2 -1 -4 5 -9 0 -13 -16 -12 -49 2
-73 14 -73 37 0 28 -9 28 -37 0 -16 -16 -17 -20 -5 -15 9 3 17 2 17 -2 0 -5
-22 -12 -50 -16 -58 -8 -71 -22 -44 -44 11 -9 23 -24 27 -33 5 -14 1 -18 -18
-18 -21 0 -25 -5 -25 -28 0 -45 16 -52 112 -52 56 0 88 -4 88 -11 0 -6 -28
-10 -79 -8 -43 1 -84 -2 -91 -6 -23 -14 13 -24 93 -26 l77 -2 0 -98 c0 -55 -1
-99 -3 -99 -1 0 -18 5 -37 10 -41 12 -168 15 -234 5 l-46 -7 0 166 0 166 -142
1 c-79 1 -154 5 -168 10 -18 6 -12 7 25 4 37 -3 45 -2 30 5 -15 8 -12 8 15 4
30 -6 33 -5 22 9 -8 9 -45 19 -95 26 -45 6 -93 13 -107 15 -14 2 -6 4 17 5 23
0 76 -6 119 -14 71 -14 78 -13 90 3 15 21 9 32 -18 32 -17 0 -18 -2 -8 -15 7
-9 11 -17 9 -19 -2 -2 -38 3 -79 11 -102 21 -370 21 -470 0 -41 -8 -77 -13
-79 -11 -2 2 2 10 9 19 10 13 9 15 -8 15 -24 0 -37 -16 -21 -25 5 -4 8 -13 6
-19 -4 -10 7 -9 46 1 29 7 86 15 127 18 81 4 70 1 -57 -16 -50 -7 -87 -17 -95
-26 -11 -14 -8 -15 22 -9 27 4 30 4 15 -4 -15 -7 -7 -8 30 -5 37 3 43 2 25 -4
-14 -5 -87 -9 -162 -10 l-138 -1 0 -169 0 -169 -37 9 c-21 5 -57 9 -80 9 l-42
0 -4 93 -3 92 -2 -92 c-3 -121 -22 -124 -22 -4 0 81 2 90 20 96 15 5 19 12 15
26 -4 12 -1 21 9 25 10 4 16 18 16 39 0 29 -4 34 -27 37 l-26 3 27 32 c34 41
23 68 -35 83 -25 7 -43 19 -49 33 l-9 22 -6 -21z m-34 -61 c13 -16 12 -17 -3
-4 -10 7 -18 15 -18 17 0 8 8 3 21 -13z m836 0 c-20 -2 -52 -2 -70 0 -17 2 0
4 38 4 39 0 53 -2 32 -4z m-144 -80 c-13 -2 -33 -2 -45 0 -13 2 -3 4 22 4 25
0 35 -2 23 -4z m270 0 c-13 -2 -33 -2 -45 0 -13 2 -3 4 22 4 25 0 35 -2 23 -4z
m357 -293 l0 -280 -170 0 c-157 0 -170 1 -170 18 0 10 -12 41 -26 70 -26 52
-65 84 -116 97 l-28 7 0 184 0 184 255 0 255 0 0 -280z m-1170 245 l0 -25
-110 0 -110 0 0 25 0 25 110 0 110 0 0 -25z m1530 0 l0 -25 -110 0 -110 0 0
25 0 25 110 0 110 0 0 -25z m-1610 -184 l0 -89 -37 -6 c-21 -4 -46 -9 -55 -12
-16 -5 -18 4 -18 95 l0 101 55 0 55 0 0 -89z m17 -48 c-2 -27 -3 -5 -3 47 0
52 1 74 3 48 2 -27 2 -69 0 -95z m411 120 c-10 -2 -26 -2 -35 0 -10 3 -2 5 17
5 19 0 27 -2 18 -5z m140 0 c-10 -2 -26 -2 -35 0 -10 3 -2 5 17 5 19 0 27 -2
18 -5z m-148 -58 c0 -8 -7 -15 -15 -15 -8 0 -15 7 -15 15 0 8 7 15 15 15 8 0
15 -7 15 -15z m78 3 c-7 -19 -38 -22 -38 -4 0 10 9 16 21 16 12 0 19 -5 17
-12z m72 -3 c0 -8 -7 -15 -15 -15 -8 0 -15 7 -15 15 0 8 7 15 15 15 8 0 15 -7
15 -15z m-43 -21 c-3 -3 -12 -4 -19 -1 -8 3 -5 6 6 6 11 1 17 -2 13 -5z m-90
-20 c-3 -3 -12 -4 -19 -1 -8 3 -5 6 6 6 11 1 17 -2 13 -5z m70 0 c-3 -3 -12
-4 -19 -1 -8 3 -5 6 6 6 11 1 17 -2 13 -5z m40 0 c-3 -3 -12 -4 -19 -1 -8 3
-5 6 6 6 11 1 17 -2 13 -5z m-130 -20 c-3 -3 -12 -4 -19 -1 -8 3 -5 6 6 6 11
1 17 -2 13 -5z m40 0 c-3 -3 -12 -4 -19 -1 -8 3 -5 6 6 6 11 1 17 -2 13 -5z
m70 0 c-3 -3 -12 -4 -19 -1 -8 3 -5 6 6 6 11 1 17 -2 13 -5z m40 0 c-3 -3 -12
-4 -19 -1 -8 3 -5 6 6 6 11 1 17 -2 13 -5z m-60 -20 c-3 -3 -12 -4 -19 -1 -8
3 -5 6 6 6 11 1 17 -2 13 -5z m0 -40 c-3 -3 -12 -4 -19 -1 -8 3 -5 6 6 6 11 1
17 -2 13 -5z m-492 -24 c3 -11 11 -20 16 -20 6 0 7 -5 3 -12 -5 -8 -13 -4 -26
11 -20 25 -23 41 -9 41 5 0 13 -9 16 -20z m38 5 c-3 -9 -8 -14 -10 -11 -3 3
-2 9 2 15 9 16 15 13 8 -4z m66 -22 c9 -6 13 -14 9 -18 -11 -12 -51 32 -42 46
6 10 9 10 12 -1 3 -8 12 -20 21 -27z m1288 -10 c-3 -10 -5 -2 -5 17 0 19 2 27
5 18 2 -10 2 -26 0 -35z m85 35 c-5 -7 -12 -24 -15 -38 -4 -22 -4 -21 -6 7 0
17 -7 34 -13 36 -7 3 0 6 16 6 22 1 26 -2 18 -11z m-1542 -41 c0 -10 -4 -15
-10 -12 -5 3 -10 18 -10 33 0 21 2 24 10 12 5 -8 10 -23 10 -33z m1384 21 c10
-13 16 -17 16 -9 0 8 3 12 6 8 3 -3 2 -13 -3 -21 -8 -14 -12 -12 -31 14 -13
16 -18 30 -13 30 5 0 17 -10 25 -22z m221 -6 c4 10 11 15 17 12 5 -3 4 -11 -2
-19 -7 -8 -9 -19 -5 -25 3 -5 2 -10 -4 -10 -5 0 -12 6 -14 13 -4 9 -8 8 -16
-3 -9 -12 -11 -11 -11 7 0 12 3 30 7 40 6 16 8 15 14 -7 5 -21 7 -22 14 -8z
m-1685 -8 c0 -8 5 -12 10 -9 6 4 8 11 5 16 -4 5 -1 9 4 9 14 0 14 -17 1 -25
-5 -3 -10 -16 -10 -28 -1 -21 -1 -21 -15 3 -17 30 -19 50 -5 50 6 0 10 -7 10
-16z m567 10 c-3 -3 -12 -4 -19 -1 -8 3 -5 6 6 6 11 1 17 -2 13 -5z m70 0 c-3
-3 -12 -4 -19 -1 -8 3 -5 6 6 6 11 1 17 -2 13 -5z m40 0 c-3 -3 -12 -4 -19 -1
-8 3 -5 6 6 6 11 1 17 -2 13 -5z m-130 -20 c-3 -3 -12 -4 -19 -1 -8 3 -5 6 6
6 11 1 17 -2 13 -5z m40 0 c-3 -3 -12 -4 -19 -1 -8 3 -5 6 6 6 11 1 17 -2 13
-5z m70 0 c-3 -3 -12 -4 -19 -1 -8 3 -5 6 6 6 11 1 17 -2 13 -5z m40 0 c-3 -3
-12 -4 -19 -1 -8 3 -5 6 6 6 11 1 17 -2 13 -5z m1083 -29 c0 -19 -5 -35 -11
-35 -7 0 -9 10 -7 25 6 28 5 29 -25 14 -19 -9 -18 -7 3 10 34 28 40 26 40 -14z
m-1140 -1 c16 -10 18 -13 5 -8 -11 4 -27 7 -35 7 -8 0 -24 -3 -35 -7 -13 -5
-11 -2 5 8 14 8 27 15 30 15 3 0 16 -7 30 -15z m-517 -164 c-4 -4 -30 -17 -56
-28 l-48 -21 3 97 3 97 50 11 50 10 3 -80 c2 -43 -1 -82 -5 -86z m24 48 c-2
-24 -4 -5 -4 42 0 47 2 66 4 43 2 -24 2 -62 0 -85z m33 47 c0 -43 -4 -75 -10
-75 -6 0 -10 32 -10 75 0 43 4 75 10 75 6 0 10 -32 10 -75z m367 69 c-3 -3
-12 -4 -19 -1 -8 3 -5 6 6 6 11 1 17 -2 13 -5z m150 0 c-3 -3 -12 -4 -19 -1
-8 3 -5 6 6 6 11 1 17 -2 13 -5z m-200 -20 c-3 -3 -12 -4 -19 -1 -8 3 -5 6 6
6 11 1 17 -2 13 -5z m80 -36 c-3 -7 -5 -2 -5 12 0 14 2 19 5 13 2 -7 2 -19 0
-25z m70 0 c-3 -7 -5 -2 -5 12 0 14 2 19 5 13 2 -7 2 -19 0 -25z m-94 15 c-7
-2 -19 -2 -25 0 -7 3 -2 5 12 5 14 0 19 -2 13 -5z m140 0 c-7 -2 -19 -2 -25 0
-7 3 -2 5 12 5 14 0 19 -2 13 -5z m-196 -19 c-3 -3 -12 -4 -19 -1 -8 3 -5 6 6
6 11 1 17 -2 13 -5z m341 -44 c15 -1 15 -2 -1 -14 -10 -8 -27 -12 -37 -9 -24
6 -27 23 -4 23 8 0 12 5 9 10 -3 6 -3 16 2 23 6 8 9 5 11 -10 2 -13 11 -23 20
-23z m103 0 c15 0 10 -17 -6 -24 -18 -6 -45 2 -45 15 0 5 7 9 16 9 8 0 12 5 9
10 -3 6 -3 16 2 23 6 8 9 5 11 -10 2 -13 8 -23 13 -23z m-542 -282 l-1 -233
-19 40 c-16 35 -19 65 -19 233 0 185 1 192 20 192 19 0 20 -6 19 -232z m121
-48 l0 -280 -25 12 -25 11 0 269 0 268 25 0 25 0 0 -280z m110 -11 l0 -290
-22 3 -23 3 -3 288 -2 287 25 0 25 0 0 -291z m245 260 c-5 -14 -3 -17 9 -13 9
3 16 2 16 -4 0 -5 -6 -12 -14 -15 -19 -8 -57 3 -50 14 3 5 10 7 15 4 5 -4 9 6
9 20 0 16 4 24 10 20 6 -4 8 -15 5 -26z m193 -21 c10 -10 17 -10 32 0 15 9 25
9 46 0 22 -10 28 -10 32 0 4 14 52 16 52 2 0 -13 33 -13 46 0 14 14 44 2 44
-16 0 -8 -6 -23 -12 -34 -10 -15 -10 -22 0 -32 15 -15 16 -50 0 -66 -9 -9 -8
-18 2 -37 11 -21 12 -30 2 -46 -10 -15 -10 -23 0 -39 10 -16 10 -25 -4 -48 -9
-15 -16 -36 -15 -47 1 -12 -8 -24 -25 -33 -16 -7 -28 -19 -28 -27 0 -18 -34
-37 -53 -29 -9 3 -27 -2 -41 -12 -25 -16 -28 -16 -46 1 -11 10 -26 15 -36 11
-25 -9 -51 2 -57 24 -3 11 -17 24 -31 30 -20 7 -26 16 -26 40 0 17 -7 42 -16
55 -14 21 -14 28 -3 41 10 13 10 19 0 36 -9 15 -10 23 -2 31 14 14 14 57 0 57
-5 0 -7 5 -4 11 4 6 13 8 21 5 8 -3 14 1 14 9 0 8 5 15 10 15 6 0 10 -9 10
-20 0 -11 -4 -20 -10 -20 -16 0 -11 -50 6 -57 8 -3 26 0 39 7 19 10 29 10 54
-1 17 -8 31 -17 31 -21 0 -11 -57 -19 -93 -13 -42 8 -55 -7 -36 -42 10 -18 10
-29 2 -42 -7 -11 -8 -23 -2 -32 7 -12 11 -12 24 2 9 9 17 23 19 32 3 21 26 47
41 47 7 0 18 6 25 14 6 8 24 16 38 18 34 4 36 32 2 36 -14 2 -34 12 -45 21
-11 10 -28 21 -38 24 -9 4 -20 15 -23 24 -3 10 -10 26 -15 36 -11 20 -6 21 24
5 39 -22 56 -40 51 -52 -3 -7 4 -20 15 -30 20 -18 20 -17 17 55 -2 58 -6 75
-18 77 -9 2 -19 -2 -23 -7 -9 -16 -45 -13 -45 4 0 9 6 12 15 9 8 -4 15 -1 15
5 0 6 -5 11 -11 11 -5 0 -7 5 -4 10 8 13 18 13 33 -2z m-318 -287 l0 -198 -25
-11 -25 -12 0 253 0 252 25 -44 c24 -42 25 -48 25 -240z m-570 109 c0 -87 -4
-140 -10 -140 -6 0 -10 53 -10 140 0 87 4 140 10 140 6 0 10 -53 10 -140z
m-33 -72 c-1 -40 -3 -10 -3 67 0 77 1 110 3 73 2 -37 2 -100 0 -140z m-17 62
l0 -130 -55 0 -55 0 0 109 0 108 53 21 c28 11 53 21 55 21 1 1 2 -57 2 -129z
m728 -40 c2 -73 -1 -105 -15 -140 l-18 -45 -6 70 c-4 39 -7 103 -8 143 -1 71
0 73 22 70 21 -3 22 -8 25 -98z m-710 -117 c-27 -2 -69 -2 -95 0 -27 2 -5 3
47 3 52 0 74 -1 48 -3z m1530 0 c-27 -2 -69 -2 -95 0 -27 2 -5 3 47 3 52 0 74
-1 48 -3z m-1488 -23 c0 -6 -37 -10 -91 -10 -57 0 -88 4 -84 10 3 6 44 10 91
10 49 0 84 -4 84 -10z m1530 0 c0 -6 -37 -10 -91 -10 -57 0 -88 4 -84 10 3 6
44 10 91 10 49 0 84 -4 84 -10z m-1510 -45 l0 -25 -110 0 -110 0 0 25 0 25
110 0 110 0 0 -25z m1530 0 l0 -25 -110 0 -110 0 0 25 0 25 110 0 110 0 0 -25z
m-137 -60 c19 -4 50 -2 70 3 39 11 117 -3 117 -20 0 -6 -8 -7 -17 -3 -39 15
-74 17 -105 6 -25 -9 -44 -9 -79 0 -34 9 -54 9 -77 1 -18 -6 -32 -7 -32 -3 0
10 61 30 77 26 6 -2 27 -7 46 -10z m-12 -46 c28 -9 49 -9 81 -1 46 12 118 -1
118 -21 0 -5 -8 -6 -17 -2 -39 14 -73 17 -103 6 -23 -7 -45 -7 -79 1 -35 8
-57 8 -80 0 -18 -6 -31 -7 -31 -2 0 8 29 20 69 29 2 1 21 -4 42 -10z"/>
<path d="M1820 2754 c0 -8 6 -14 13 -14 8 0 24 -11 37 -25 13 -14 31 -25 39
-24 11 0 12 2 4 6 -7 2 -13 11 -13 18 0 8 -9 17 -20 20 -11 3 -20 10 -20 15 0
4 -9 10 -20 13 -13 3 -20 0 -20 -9z"/>
<path d="M1790 2721 c-18 -5 -24 -13 -22 -27 3 -15 1 -17 -9 -6 -7 6 -22 12
-33 12 -18 -1 -17 -4 12 -28 39 -32 40 -42 7 -42 -41 0 -76 28 -69 55 6 26
-11 43 -20 19 -4 -10 -13 -13 -25 -9 -11 3 -22 1 -26 -5 -3 -5 -1 -11 4 -11 6
-1 17 -2 24 -3 6 -1 18 2 25 7 9 7 11 6 6 -6 -3 -10 4 -22 20 -32 14 -10 26
-24 26 -31 0 -8 7 -14 15 -14 8 0 14 -3 14 -7 -4 -25 3 -34 21 -28 28 9 25
-12 -2 -21 -13 -5 -26 -7 -30 -6 -5 1 -8 -2 -8 -6 0 -4 -10 -8 -22 -9 -11 -1
-25 -8 -29 -15 -5 -7 -9 -11 -10 -8 0 3 -2 13 -4 23 -2 12 3 17 19 17 13 0 31
9 41 20 15 17 16 20 2 20 -8 0 -28 15 -43 33 -15 17 -31 31 -35 30 -5 -2 -6 4
-2 13 5 14 3 15 -15 5 -21 -11 -31 -32 -14 -30 19 3 45 -2 39 -7 -7 -7 9 -23
37 -39 25 -14 16 -30 -19 -31 -47 -2 -51 -4 -35 -15 11 -8 12 -12 3 -16 -16
-6 -17 -23 -2 -23 7 0 17 -8 24 -17 11 -15 13 -15 19 5 4 13 13 21 19 20 7 -1
22 4 35 10 20 12 26 10 52 -12 l30 -25 -28 -3 c-30 -3 -42 -38 -22 -64 7 -8 8
-14 2 -14 -5 0 -15 7 -22 15 -14 17 -45 21 -35 4 4 -5 -1 -19 -11 -30 -16 -18
-16 -19 3 -19 12 0 24 -8 28 -17 6 -16 8 -16 18 -2 7 9 19 19 27 22 8 4 4 5
-8 3 -35 -7 -54 2 -39 19 9 9 16 10 25 2 22 -18 38 7 24 38 -13 29 -1 39 39
33 28 -4 38 -28 11 -28 -16 0 -21 -8 -24 -39 -2 -22 0 -37 4 -35 5 3 8 18 8
35 0 16 5 29 11 29 5 0 7 -6 4 -12 -4 -7 1 -4 9 6 24 29 20 41 -24 70 -44 29
-48 37 -23 57 13 11 17 11 21 1 3 -10 7 -10 18 -1 11 9 14 8 14 -3 0 -18 37
-68 50 -68 5 0 -2 11 -16 25 -27 27 -26 54 3 87 9 10 12 22 7 30 -5 7 -7 24
-5 36 1 14 -7 34 -20 48 -24 25 -29 26 -69 15z m61 -18 c18 -21 20 -116 2
-102 -8 7 -10 5 -7 -9 4 -15 0 -18 -25 -18 -17 0 -31 4 -31 9 0 5 -7 7 -15 3
-9 -3 -15 0 -15 9 0 7 -8 16 -17 18 -11 3 -7 5 10 6 15 0 27 6 27 12 0 6 7 18
16 27 15 14 15 17 0 27 -24 18 -19 28 10 21 17 -5 23 -3 19 4 -10 17 11 11 26
-7z"/>
<path d="M1972 2723 c-6 -2 -9 -10 -5 -16 4 -8 1 -8 -9 1 -27 22 -42 -34 -34
-132 5 -56 3 -86 -4 -89 -6 -3 -5 -4 2 -3 7 1 16 16 19 32 6 29 6 29 11 4 l5
-25 -2 25 c-2 14 -6 41 -10 61 -6 29 -3 43 13 65 17 24 39 86 30 83 -2 0 -9
-3 -16 -6z m-12 -63 c-15 -28 -30 -34 -30 -11 0 36 11 53 26 40 10 -8 11 -16
4 -29z"/>
<path d="M1918 2468 c-22 -7 -28 -16 -28 -38 0 -15 6 -30 14 -33 11 -4 11 -12
3 -40 -6 -18 -17 -34 -23 -34 -7 0 -11 4 -8 8 2 4 -2 10 -8 12 -8 3 -5 6 5 6
29 1 16 33 -16 42 -20 5 -27 4 -24 -4 2 -6 14 -14 28 -17 l24 -6 -27 -7 c-29
-8 -39 -27 -13 -27 9 0 12 -6 9 -15 -4 -9 0 -15 9 -15 9 0 22 -3 31 -6 13 -5
16 1 16 26 0 17 4 40 10 50 7 13 6 21 -5 30 -23 19 -18 49 10 60 14 5 25 12
25 15 0 3 -1 5 -2 4 -2 0 -15 -5 -30 -11z"/>
<path d="M1870 2160 c0 -5 5 -10 10 -10 6 0 10 5 10 10 0 6 -4 10 -10 10 -5 0
-10 -4 -10 -10z"/>
<path d="M1804 2139 c-3 -6 -1 -16 5 -22 14 -14 15 -57 1 -57 -5 0 -10 -14
-10 -32 0 -30 1 -31 19 -14 11 10 21 28 23 39 2 12 14 27 28 34 14 7 36 23 50
37 23 26 23 26 2 26 -12 0 -22 -4 -22 -10 0 -5 -9 -10 -19 -10 -11 0 -23 5
-26 10 -8 13 -42 13 -51 -1z"/>
<path d="M1922 2103 c-11 -16 -23 -38 -26 -50 -4 -13 -15 -23 -26 -23 -10 0
-25 -11 -34 -25 -14 -22 -15 -25 -1 -25 8 0 15 5 15 10 0 6 11 10 25 10 14 0
25 -4 25 -10 0 -16 36 -12 51 6 10 12 10 20 1 35 -15 23 -16 56 -2 64 13 8 13
35 1 35 -5 0 -18 -12 -29 -27z"/>
<path d="M1780 2091 c0 -6 5 -13 10 -16 6 -3 10 1 10 9 0 9 -4 16 -10 16 -5 0
-10 -4 -10 -9z"/>
<path d="M1961 2064 c0 -11 3 -14 6 -6 3 7 2 16 -1 19 -3 4 -6 -2 -5 -13z"/>
<path d="M1700 2060 c0 -5 5 -10 10 -10 6 0 10 5 10 10 0 6 -4 10 -10 10 -5 0
-10 -4 -10 -10z"/>
<path d="M1865 2060 c-3 -5 -1 -10 4 -10 6 0 11 5 11 10 0 6 -2 10 -4 10 -3 0
-8 -4 -11 -10z"/>
<path d="M1610 1970 c0 -5 5 -10 10 -10 6 0 10 5 10 10 0 6 -4 10 -10 10 -5 0
-10 -4 -10 -10z"/>
<path d="M1700 1970 c0 -5 5 -10 10 -10 6 0 10 5 10 10 0 6 -4 10 -10 10 -5 0
-10 -4 -10 -10z"/>
<path d="M1865 1970 c3 -5 10 -10 16 -10 5 0 9 5 9 10 0 6 -7 10 -16 10 -8 0
-12 -4 -9 -10z"/>
<path d="M1955 1970 c4 -6 11 -8 16 -5 14 9 11 15 -7 15 -8 0 -12 -5 -9 -10z"/>
<path d="M1832 1943 c6 -7 22 -19 37 -26 14 -7 27 -21 29 -32 5 -26 32 -56 44
-49 5 3 6 21 2 41 -5 25 -3 38 7 44 27 16 -9 34 -71 34 -47 1 -57 -2 -48 -12z"/>
<path d="M1762 1928 c-7 -7 -12 -19 -12 -28 0 -9 -9 -25 -20 -35 -11 -10 -20
-14 -20 -10 0 4 -9 0 -20 -10 -28 -26 -22 -57 13 -66 16 -4 35 -16 42 -26 7
-10 17 -14 22 -10 6 7 15 197 9 197 -1 0 -7 -5 -14 -12z"/>
<path d="M1800 1911 c0 -17 6 -40 12 -51 10 -16 10 -24 0 -40 -17 -28 -15 -67
4 -74 22 -8 24 -8 24 9 0 8 14 17 35 21 28 5 35 11 35 29 0 12 -9 30 -20 40
-11 10 -20 14 -20 10 0 -4 -9 0 -19 9 -11 10 -18 23 -15 30 3 7 -4 21 -16 31
-20 18 -20 18 -20 -14z"/>
<path d="M1610 1890 c0 -5 5 -10 10 -10 6 0 10 5 10 10 0 6 -4 10 -10 10 -5 0
-10 -4 -10 -10z"/>
<path d="M1706 1891 c-4 -5 -2 -12 3 -15 5 -4 12 -2 15 3 4 5 2 12 -3 15 -5 4
-12 2 -15 -3z"/>
<path d="M1860 1891 c0 -5 5 -13 10 -16 6 -3 10 -2 10 4 0 5 -4 13 -10 16 -5
3 -10 2 -10 -4z"/>
<path d="M1780 1840 c0 -5 5 -10 10 -10 6 0 10 5 10 10 0 6 -4 10 -10 10 -5 0
-10 -4 -10 -10z"/>
<path d="M1700 1750 c0 -5 5 -10 10 -10 6 0 10 5 10 10 0 6 -4 10 -10 10 -5 0
-10 -4 -10 -10z"/>
<path d="M1865 1750 c-3 -5 -2 -10 4 -10 5 0 13 5 16 10 3 6 2 10 -4 10 -5 0
-13 -4 -16 -10z"/>
<path d="M1490 2935 c0 -11 12 -15 45 -15 33 0 45 4 45 15 0 11 -12 15 -45 15
-33 0 -45 -4 -45 -15z"/>
<path d="M1670 2926 c0 -12 10 -16 36 -16 45 0 42 24 -4 28 -24 2 -32 -1 -32
-12z"/>
<path d="M1509 1739 l-24 -21 28 16 c25 15 29 15 52 0 27 -18 32 -42 13 -64
-11 -12 -10 -12 5 -1 9 7 17 20 17 28 0 20 -31 57 -51 61 -9 1 -27 -7 -40 -19z"/>
<path d="M1531 1726 c-7 -9 -11 -30 -8 -49 l4 -34 -36 13 c-44 16 -71 17 -71
4 0 -14 55 -40 84 -40 13 0 27 -6 30 -12 5 -10 7 -10 12 0 3 6 21 12 39 12 37
0 85 18 85 32 0 12 -88 10 -95 -2 -3 -5 -12 -10 -18 -10 -7 0 -6 4 3 10 8 5
10 10 4 10 -6 0 -9 10 -7 24 3 13 1 32 -4 41 -8 14 -11 15 -22 1z"/>
<path d="M1481 1699 c-1 -9 7 -23 17 -30 15 -12 16 -12 6 1 -6 8 -14 22 -17
30 -5 13 -6 12 -6 -1z"/>
<path d="M638 1688 c-16 -5 -28 -17 -28 -25 0 -12 6 -13 28 -7 15 4 43 7 62 5
50 -4 100 -4 140 -1 19 2 49 0 66 -4 24 -6 31 -5 31 7 0 25 -79 42 -130 28
-31 -9 -50 -9 -70 -2 -34 13 -63 13 -99 -1z"/>
<path d="M645 1641 c-11 -5 -23 -7 -27 -4 -5 2 -8 -5 -8 -16 0 -24 7 -25 47
-10 20 7 39 7 71 -2 33 -9 52 -9 83 0 31 9 48 9 76 0 29 -9 37 -9 44 2 15 25
-65 44 -121 30 -33 -9 -54 -9 -74 -1 -32 12 -63 12 -91 1z"/>
<path d="M1318 1613 c7 -3 16 -2 19 1 4 3 -2 6 -13 5 -11 0 -14 -3 -6 -6z"/>
<path d="M1748 1613 c7 -3 16 -2 19 1 4 3 -2 6 -13 5 -11 0 -14 -3 -6 -6z"/>
<path d="M1358 1603 c6 -2 18 -2 25 0 6 3 1 5 -13 5 -14 0 -19 -2 -12 -5z"/>
<path d="M1698 1603 c6 -2 18 -2 25 0 6 3 1 5 -13 5 -14 0 -19 -2 -12 -5z"/>
<path d="M1413 1593 c9 -2 25 -2 35 0 9 3 1 5 -18 5 -19 0 -27 -2 -17 -5z"/>
<path d="M1633 1593 c9 -2 25 -2 35 0 9 3 1 5 -18 5 -19 0 -27 -2 -17 -5z"/>
<path d="M1508 1583 c17 -2 47 -2 65 0 17 2 3 4 -33 4 -36 0 -50 -2 -32 -4z"/>
<path d="M356 1258 c200 -338 534 -677 869 -881 594 -361 1304 -466 1976 -293
429 110 811 325 1136 640 160 154 323 358 427 534 6 9 -438 12 -2204 12 -1766
0 -2210 -3 -2204 -12z"/>
</g>
</svg>
